<svg fill="none" height="255" viewBox="0 0 255 255" width="255" xmlns="http://www.w3.org/2000/svg" xmlns:xlink="http://www.w3.org/1999/xlink"><linearGradient id="a"><stop offset="0" stop-color="#fff"/><stop offset=".08" stop-color="#f3f3f3"/><stop offset=".21" stop-color="#d4d4d4"/><stop offset=".25" stop-color="#c9c9c9"/><stop offset=".28" stop-color="#d1d1d1"/><stop offset=".38" stop-color="#eaeaea"/><stop offset=".47" stop-color="#fafafa"/><stop offset=".54" stop-color="#fff"/><stop offset=".8" stop-color="#c9c9c9"/><stop offset="1" stop-color="#fff"/></linearGradient><linearGradient id="b" gradientUnits="userSpaceOnUse" x1="-.74765" x2="254.464" xlink:href="#a" y1="126.707" y2="126.707"/><linearGradient id="c" gradientUnits="userSpaceOnUse" x1="-840520" x2="-750642" xlink:href="#a" y1="-850256" y2="-850256"/><linearGradient id="d" gradientUnits="userSpaceOnUse" x1="89.0864" x2="164.359" y1="126.723" y2="126.723"><stop offset="0" stop-color="#fff"/><stop offset=".05" stop-color="#f3f3f3"/><stop offset=".14" stop-color="#d4d4d4"/><stop offset=".25" stop-color="#a6a6a6"/><stop offset=".27" stop-color="#adadad"/><stop offset=".35" stop-color="#d1d1d1"/><stop offset=".42" stop-color="#eaeaea"/><stop offset=".49" stop-color="#fafafa"/><stop offset=".54" stop-color="#fff"/><stop offset=".8" stop-color="#ababab"/><stop offset="1" stop-color="#fff"/></linearGradient><linearGradient id="e" gradientUnits="userSpaceOnUse" x1="19.0721" x2="234.447" y1="126.547" y2="126.547"><stop offset="0" stop-color="#fafafa"/><stop offset=".13" stop-color="#f8f8f8"/><stop offset=".2" stop-color="#f0f0f0"/><stop offset=".24" stop-color="#e4e4e4"/><stop offset=".27" stop-color="#d9d9d9"/><stop offset=".43" stop-color="#eee"/><stop offset=".54" stop-color="#f7f7f7"/><stop offset=".61" stop-color="#f3f3f3"/><stop offset=".68" stop-color="#e8e8e8"/><stop offset=".74" stop-color="#d9d9d9"/><stop offset="1" stop-color="#f0f0f0"/></linearGradient><clipPath id="f"><path d="m0 0h255v255h-255z"/></clipPath><g clip-path="url(#f)"><path d="m217.39 217.392c49.645-49.646 49.645-130.1378 0-179.7835-49.646-49.6457-130.1375-49.6457-179.7832 0s-49.6457 130.1375 0 179.7835c49.6457 49.645 130.1372 49.645 179.7832 0z" fill="url(#b)" stroke="#000" stroke-width="1.21"/><path d="m19.7882 170.298c23.3207 59.49 90.4558 88.811 149.9458 65.484 59.489-23.327 88.81-90.462 65.483-149.9517-23.327-59.4895-90.456-88.80433-149.9452-65.4836-59.4895 23.3207-88.8105 90.4493-65.4836 149.9513z" fill="url(#c)"/><g fill="#000"><path d="m126.755 127.318-93.1527-7.009c-.3959 0-.798-.037-1.2372 0-6.3961 0-11.5304 3.223-11.4686 7.12.0619 3.897 5.289 7.034 11.6852 6.997.4082 0 .8103 0 1.2371-.044v.037z"/><path d="m126.766 127.459-92.8807 11.252c-.4124.058-.8083.126-1.1877.204-6.2662 1.281-10.683 5.413-9.8602 9.223.8227 3.811 6.5632 5.865 12.8233 4.584.4021-.087.7918-.179 1.1753-.284v.037z"/><path d="m126.817 127.588-88.7549 28.987c-.3773.13-.7485.272-1.1258.433-5.8952 2.474-9.4149 7.392-7.8684 10.974 1.5464 3.581 7.5776 4.466 13.4728 1.985.3711-.161.7361-.328 1.0949-.501v.037z"/><path d="m126.884 127.723-81.2078 45.608c-.3402.198-.6805.408-1.0145.619-5.3013 3.581-7.7942 9.093-5.5673 12.297s8.3076 2.907 13.6089-.68c.3341-.223.6619-.458.9774-.706v.038z"/><path d="m126.977 127.828-70.871 60.683c-.2969.266-.6186.545-.8784.829-4.4971 4.547-5.8704 10.436-3.0929 13.152 2.7774 2.715 8.7097 1.237 13.2068-3.322.2845-.285.5567-.582.8165-.879z"/><path d="m127.088 127.916-57.5838 73.03c-.2412.316-.4701.619-.699.984-3.5197 5.338-3.7115 11.376-.4453 13.497 3.2661 2.122 8.7839-.494 12.3036-5.833.2227-.34.433-.68.6186-1.027z"/><path d="m127.219 127.986-42.2129 82.965c-.1732.359-.3402.724-.4948 1.101-2.4125 5.92-1.429 11.883 2.196 13.318 3.6249 1.435 8.5179-2.196 10.9304-8.116.1546-.377.2969-.754.4206-1.132h.0372z"/><path d="m127.355 128.027-25.214 89.417c-.099.384-.185.773-.266 1.175-1.237 6.279.916 11.933 4.751 12.638s7.93-3.817 9.136-10.095c.081-.402.143-.798.198-1.194h.037z"/><path d="m133.875 220.709h.037l-6.409-92.658-7.695 92.862v1.206c.037 6.396 3.229 11.531 7.126 11.469s7.027-5.289 6.996-11.685c-.012-.371-.031-.804-.055-1.194z"/><path d="m152.247 218.848c-.087-.402-.173-.792-.278-1.176h.037l-24.373-89.633 10.578 92.596c.056.39.124.786.204 1.182 1.287 6.266 5.413 10.683 9.23 9.86 3.816-.823 5.882-6.563 4.602-12.829z"/><path d="m169.467 211.966c-.161-.371-.328-.736-.507-1.095h.037l-41.229-82.891 28.282 88.458c.13.378.272.755.427 1.126 2.474 5.895 7.392 9.421 10.973 7.875 3.582-1.547 4.498-7.578 2.017-13.473z"/><path d="m185.112 201.819c-.229-.334-.464-.662-.705-.972h.031l-56.545-72.931 44.934 80.924c.198.34.414.68.618 1.014 3.582 5.301 9.087 7.794 12.298 5.567 3.21-2.227 2.95-8.307-.631-13.602z"/><path d="m198.696 189.129c-.291-.291-.581-.563-.884-.823l-69.839-60.46 60.003 70.587c.26.297.538.587.829.872 4.547 4.497 10.429 5.87 13.145 3.093 2.716-2.778 1.293-8.778-3.254-13.269z"/><path d="m209.106 173.827c-.338-.223-.678-.429-1.02-.619v-.031l-79.965-45.466 72.375 57.3c.321.241.649.47.989.692 5.333 3.526 11.376 3.712 13.492.452 2.115-3.26-.532-8.809-5.871-12.328z"/><path d="m216.765 156.854c-.371-.155-.748-.297-1.126-.421v-.037l-87.474-28.814 82.272 41.928c.359.173.73.334 1.101.489 5.926 2.412 11.889 1.428 13.325-2.196 1.435-3.625-2.178-8.537-8.098-10.949z"/><path d="m220.668 138.718c-.396-.08-.791-.142-1.187-.192v-.037l-91.285-11.042 88.755 24.917c.383.099.779.186 1.175.266 6.279 1.237 11.939-.916 12.638-4.751s-3.817-7.955-10.096-9.161z"/><path d="m222.388 120.358c-.402 0-.804 0-1.2.043v-.037l-92.942 6.947 93.159 7.163v-.031c.412.025.814.037 1.206.037 6.39-.037 11.524-3.229 11.469-7.132-.056-3.904-5.295-7.027-11.692-6.99z"/><path d="m232.162 106.61c-.822-3.811-6.563-5.864-12.829-4.578-.412.079-.802.171-1.169.279v-.037l-89.924 24.892 92.881-11.135c.389-.05.785-.118 1.187-.198 6.26-1.28 10.671-5.413 9.854-9.223z"/><path d="m225.927 86.8107c-1.547-3.5816-7.578-4.4724-13.473-1.9919-.378.1609-.736.3279-1.095.5011v-.0309l-83.169 41.748 88.749-28.801c.371-.1299.748-.2722 1.125-.4268 5.883-2.5115 9.409-7.4169 7.863-10.9985z"/><path d="m215.911 68.4867c-2.215-3.2104-8.308-2.9073-13.609.6743-.34.2289-.662.4701-.977.7052l-73.204 57.0148 81.208-45.4534c.34-.2042.681-.4145 1.021-.6186 5.276-3.6064 7.775-9.1118 5.561-12.3223z"/><path d="m202.822 52.2627c-2.796-2.7094-8.709-1.2372-13.207 3.3218-.284.2846-.563.5815-.822.8784l-60.764 70.3271 70.865-60.5287c.297-.266.588-.5382.879-.8289 4.472-4.5652 5.845-10.4541 3.049-13.1697z"/><path d="m186.622 39.3394c-3.273-2.1217-8.784.4887-12.31 5.8271-.223.3402-.433.6866-.619 1.0269l-45.781 80.5086 57.59-72.8691c.241-.3155.47-.6186.693-.9836 3.501-5.3569 3.699-11.3943.427-13.5099z"/><path d="m168.274 29.3954c-3.625-1.4413-8.524 2.1959-10.937 8.1158-.154.3774-.291.7547-.414 1.132h-.037l-29.074 88.0128 42.188-82.829c.173-.3526.34-.7238.488-1.1011 2.388-5.9322 1.411-11.8954-2.214-13.3305z"/><path d="m148.337 23.5146c-3.835-.699-7.924 3.8229-9.137 10.0954-.074.402-.142.7979-.192 1.1938h-.037l-11.326 91.7922 25.22-89.2621h-.031c.105-.3836.192-.7733.266-1.1754 1.2-6.2848-.928-11.9572-4.763-12.6439z"/><path d="m134.005 32.4984c-.037-6.39-3.223-11.5304-7.12-11.4686-3.897.0619-7.033 5.289-6.996 11.6852 0 .4082 0 .8103.043 1.2062h-.037l7.609 92.6578 6.495-92.8743c0-.3959.012-.798.006-1.2063z"/><path d="m127.342 126.583-11.753-92.5966c-.05-.4124-.118-.8083-.204-1.1877-1.281-6.2663-5.413-10.683-9.223-9.8603-3.811.8228-5.865 6.5632-4.578 12.8295.078.4124.171.8021.278 1.1691h-.037z"/><path d="m127.206 126.627-29.4443-88.458c-.1299-.3773-.2721-.7546-.433-1.1258-2.4743-5.8951-7.423-9.4149-10.9675-7.8684s-4.4724 7.5777-1.9919 13.4728c.1609.3774.3279.7361.5011 1.0949z"/><path d="m127.082 126.705-46.1031-80.9298c-.2042-.3464-.4145-.6866-.6186-1.0206-3.5816-5.2951-9.087-7.7942-12.2975-5.5673s-2.9074 8.3076.6804 13.6089c.2227.3341.464.6619.7052.9774h-.0309z"/><path d="m126.965 126.788-61.1721-70.5871c-.266-.2908-.5382-.5815-.8289-.8722-4.5466-4.4971-10.4356-5.8704-13.1512-3.093-2.7156 2.7775-1.2372 8.7159 3.3218 13.2131.2908.2845.5815.5567.8784.8165v.0309z"/><path d="m126.885 126.882-73.5194-57.2811c-.3155-.2412-.6186-.4763-.9836-.699-5.3384-3.5197-11.3758-3.7115-13.4976-.4454-2.1217 3.2662.4949 8.784 5.8333 12.3037.3402.2227.6805.433 1.0269.6186v.0309z"/><path d="m126.81 127.029-83.435-41.928c-.3526-.167-.7237-.334-1.1011-.4886-5.9199-2.4125-11.883-1.429-13.3182 2.1959-1.4351 3.625 2.1651 8.5242 8.085 10.9552.3773.1485.7546.2846 1.132.4145v.0371z"/><path d="m126.773 127.169-89.9114-24.916c-.3836-.099-.7733-.186-1.1753-.266-6.2725-1.238-11.9326.915-12.6378 4.75-.7052 3.836 3.8167 7.924 10.0954 9.137.402.08.7979.142 1.1938.192v.037z"/></g><path d="m164 137.507c5.468-19.981-6.452-40.6475-26.6-46.1653-20.147-5.5178-40.9438 6.1858-46.3935 26.1913-5.4498 20.005 6.4518 40.647 26.5995 46.165 20.147 5.518 40.944-6.211 46.394-26.191z" fill="url(#d)"/><path d="m159.051 124.928c-.136 0-.266 0-.402 0l-30.929 2.357 30.842 2.381h.396c2.128 0 3.86-1.039 3.885-2.35.025-1.312-1.658-2.376-3.792-2.388z" fill="#000"/><path d="m158.965 131.213-.396-.068-30.824-3.786 29.84 8.413c.126.04.254.073.384.099 2.084.427 3.99-.26 4.262-1.54.272-1.281-1.188-2.71-3.266-3.118z" fill="#000"/><path d="m157.555 137.262-.377-.143-29.445-9.736 27.607 14.079.365.167c1.955.835 3.959.532 4.473-.668.513-1.2-.668-2.864-2.623-3.699z" fill="#000"/><path d="m154.988 142.968c-.108-.078-.219-.15-.334-.216l-26.952-15.316 24.292 19.219c.105.087.21.161.322.241 1.756 1.2 3.779 1.305 4.515.229.737-1.076-.08-2.957-1.843-4.157z" fill="#000"/><path d="m151.48 148.127-.291-.278-23.506-20.413 20.16 23.685c.086.099.179.192.272.291 1.491 1.528 3.458 2.029 4.386 1.12.928-.91.47-2.877-1.021-4.405z" fill="#000"/><path d="m146.97 152.354c-.074-.111-.149-.222-.229-.327l-19.102-24.521 15.18 27.1.211.346c1.169 1.794 3 2.667 4.088 1.955 1.089-.711 1.021-2.759-.148-4.553z" fill="#000"/><path d="m141.761 155.757c-.05-.124-.105-.248-.167-.372l-13.999-27.879 9.656 29.618c.044.13.087.253.143.383.798 1.986 2.424 3.211 3.625 2.728 1.2-.482 1.54-2.487.742-4.478z" fill="#000"/><path d="m135.996 157.965c0-.136-.055-.266-.092-.396l-8.351-30.063 3.755 30.929c0 .13.037.266.068.402.396 2.103 1.756 3.625 3.031 3.39 1.274-.235 1.992-2.159 1.589-4.262z" fill="#000"/><path d="m130.047 158.725-2.543-31.196-2.134 31.121v.409c0 2.146 1.027 3.903 2.32 3.922 1.293.018 2.35-1.701 2.363-3.854.006-.136.006-.266-.006-.402z" fill="#000"/><path d="m127.46 127.506-8.091 30.113-.093.395c-.427 2.104.254 4.034 1.522 4.331s2.635-1.207 3.062-3.31c0-.136.05-.266.068-.402z" fill="#000"/><path d="m127.417 127.506-13.683 27.836c-.062.124-.118.248-.167.371-.823 1.98-.532 4.003.655 4.528 1.188.526 2.821-.668 3.644-2.647.055-.124.099-.254.142-.378z" fill="#000"/><path d="m127.372 127.506-18.761 24.496c-.081.105-.155.216-.235.328-1.188 1.781-1.287 3.823-.223 4.571s2.889-.093 4.083-1.856l.21-.34z" fill="#000"/><path d="m127.337 127.459-23.172 20.308c-.099.087-.198.186-.297.279-1.503 1.509-1.998 3.495-1.101 4.435s2.858.476 4.367-1.033c.093-.093.185-.192.272-.291z" fill="#000"/><path d="m127.304 127.412-26.549 15.273c-.117.064-.231.134-.341.21-1.7749 1.182-2.6348 3.038-1.9358 4.132.699 1.095 2.7098 1.034 4.4788-.148l.328-.235z" fill="#000"/><path d="m127.281 127.371-29.0303 9.681-.3711.142c-1.9671.811-3.1734 2.475-2.6971 3.675s2.4744 1.546 4.4229.736c.1245-.05.2463-.105.365-.167z" fill="#000"/><path d="m127.269 127.33-30.3105 3.712c-.1299 0-.2598.037-.3958.061-2.0785.409-3.5817 1.782-3.3466 3.093.2351 1.312 2.1094 1.998 4.194 1.596l.3897-.092z" fill="#000"/><path d="m127.255 127.289-30.8428-2.338c-.1299 0-.266 0-.4021 0-2.1217 0-3.8537 1.039-3.8785 2.351-.0247 1.311 1.6887 2.381 3.8105 2.394h.3959z" fill="#000"/><path d="m127.255 127.241-29.8347-8.363c-.1237 0-.2536-.068-.3897-.093-2.0785-.427-3.9837.26-4.2559 1.54-.2722 1.281 1.1939 2.666 3.2723 3.093l.3959.068z" fill="#000"/><path d="m127.274 127.192-27.6072-14.029-.3588-.167c-1.9609-.835-3.9651-.532-4.4724.668-.5072 1.2.6557 2.851 2.6104 3.711.1233.054.2493.102.3774.142z" fill="#000"/><path d="m127.299 127.152-24.292-19.176-.321-.235c-1.757-1.2-3.78-1.305-4.5161-.222-.7361 1.082.0928 2.925 1.8561 4.126.117.08.222.148.34.216z" fill="#000"/><path d="m127.322 127.106-20.153-23.63c-.087-.105-.179-.204-.272-.297-1.491-1.528-3.458-2.029-4.386-1.114-.928.916-.47 2.889 1.021 4.411.092.099.191.192.29.278z" fill="#000"/><path d="m127.366 127.082-15.18-27.051c-.068-.1172-.136-.2347-.21-.3461-1.17-1.7939-3.001-2.6661-4.089-1.9547-1.089.7114-1.021 2.7338.148 4.5278.074.118.155.229.235.334z" fill="#000"/><path d="m127.41 127.062-9.663-29.5622c-.043-.1299-.092-.2536-.142-.3835-.798-1.9857-2.425-3.2105-3.631-2.728s-1.522 2.4743-.724 4.4786c.05.1237.105.2474.161.3711z" fill="#000"/><path d="m127.455 127.043-3.761-30.8423c0-.1299-.037-.266-.068-.3959-.402-2.1155-1.757-3.6311-3.031-3.396-1.275.2351-1.98 2.1403-1.578 4.2435 0 .1361.056.266.087.3959z" fill="#000"/><path d="m130.026 95.5102c0-2.1527-1.026-3.9095-2.319-3.928-1.293-.0186-2.351 1.7073-2.363 3.8538v.4021l2.165 31.1949 2.517-31.1207c-.006-.1361 0-.266 0-.4021z" fill="#000"/><path d="m134.591 92.2471c-1.268-.2721-2.635 1.2063-3.092 3.3095 0 .1361-.05.266-.069.4021l-3.89 31.1023 8.468-30.1126c.037-.1283.068-.2583.093-.3897.433-2.128-.248-4.0518-1.51-4.3116z" fill="#000"/><path d="m141.161 94.3178c-1.187-.5196-2.814.6619-3.637 2.6413-.05.1238-.099.2537-.142.3774l-9.768 29.6925 14.067-27.8368c.062-.1208.118-.2446.167-.3711.798-1.9609.501-3.9837-.687-4.5033z" fill="#000"/><path d="m147.242 97.6824c-1.064-.7423-2.895.099-4.083 1.8557l-.21.3465-15.304 27.1864 19.176-24.496c.081-.105.155-.21.235-.327 1.151-1.77 1.25-3.8171.186-4.5656z" fill="#000"/><path d="m152.624 102.076c-.897-.94-2.852-.476-4.361 1.034-.099.098-.185.191-.278.296l-20.296 23.711 23.562-20.308c.099-.087.198-.18.297-.279 1.484-1.528 1.979-3.513 1.076-4.454z" fill="#000"/><path d="m156.917 107.524c-.705-1.101-2.709-1.033-4.478.148l-.328.235-24.397 19.251 26.939-15.273.341-.217c1.756-1.193 2.629-3.043 1.923-4.144z" fill="#000"/><path d="m160.215 113.686c-.476-1.238-2.474-1.547-4.417-.737l-.365.167-27.7 14.079 29.42-9.68.377-.143c1.961-.822 3.167-2.468 2.685-3.686z" fill="#000"/><path d="m162.144 120.386c-.235-1.286-2.109-2.004-4.194-1.596l-.39.087-29.84 8.369 30.682-3.711c.123 0 .259-.037.389-.062 2.116-.427 3.613-1.8 3.353-3.087z" fill="#000"/><path d="m235.149 106.359h-215.293v41.947h215.293z" fill="url(#e)"/><path d="m23.3335 142.401v-1.448h4.126v-27.607h-4.126v-1.485h16.1884v1.485h-4.5404v27.564h2.8888c3.5259.043 4.5404-.235 6.1426-1.744 1.8557-1.745 2.9321-3.669 4.0331-7.108h1.3733l-.4763 10.343z" fill="#000"/><path d="m65.0812 140.91h4.126v1.491h-15.5822v-1.448h3.9775v-27.607h-3.9404v-1.485h15.5884v1.485h-4.1755z" fill="#000"/><path d="m84.5975 127.159h2.2887c4.491 0 5.8643 1.509 5.8643 6.303 0 3.792-.2784 5.122-1.33 6.217-.8722.916-2.1527 1.237-5.0353 1.237h-1.7877zm0-1.553v-12.26h2.4248c4.1198 0 4.992 1.151 4.992 6.656 0 4.639-.9588 5.604-5.6724 5.604zm6.9158.73c2.6599-.55 3.4826-.773 4.9487-1.602.8914-.449 1.6639-1.103 2.2544-1.907.5905-.805.9823-1.738 1.1434-2.723.1612-.985.0868-1.994-.2167-2.945s-.8276-1.817-1.5295-2.526c-1.8558-1.937-4.4971-2.772-8.6602-2.772h-16.1761v1.485h3.8477v27.564h-3.8477v1.485h15.675c7.6519 0 12.0997-3.093 12.0997-8.382.051-1.659-.559-3.269-1.6951-4.479-1.6516-1.781-3.4022-2.511-7.8436-3.198z" fill="#000"/><path d="m117.476 126.2h.965c3.093.05 4.998-1.781 5.499-5.351h1.515v12.508h-1.472c-.458-4.045-2.01-5.66-5.567-5.66h-.965v13.213h5.184c2.796.043 4.583-.736 6.142-2.629 1.427-1.699 2.416-3.72 2.883-5.889h1.559l-.619 10.009h-26.494v-1.448h3.854v-27.607h-3.854v-1.485h25.579l.414 8.531h-1.503c-1.008-3.019-2.017-4.572-3.712-5.766-1.416-.958-2.746-1.28-5.499-1.28h-3.897z" fill="#000"/><path d="m149.352 125.373v-12.136h3.322c4.057 0 4.948 1.101 4.948 6.068 0 4.689-1.187 6.068-5.338 6.068zm0 1.485h1.658c3.878 0 4.948 1.466 5.171 7.237.136 3.755.687 5.407 2.375 6.805 1.281 1.051 3.291 1.596 5.568 1.596 1.724.104 3.442-.291 4.948-1.139v-1.67c-.762.504-1.654.775-2.567.78-1.466 0-1.856-.619-1.856-3.093-.043-4.027-.179-4.899-.958-6.366-1.188-2.245-3.563-3.754-7.454-4.726 6.266-.835 9.835-3.501 9.835-7.453 0-2.852-2.381-5.425-5.994-6.428-2.193-.52-4.446-.749-6.699-.68h-15.279v1.497h3.853v27.731h-3.853v1.466h15.279v-1.466h-4.015z" fill="#000"/><path d="m198.548 111.861.179 10.015h-1.373c-.619-4.219-2.202-7.015-4.491-8.041-.834-.316-1.719-.471-2.611-.458h-.507v27.564h4.677v1.491h-16.702v-1.448h4.534v-27.638h-.686c-3.712 0-5.679 2.338-7.102 8.53h-1.311l.136-10.015z" fill="#000"/><path d="m217.198 111.868v1.484h-3.483l6.805 12.917 5.338-10.349.458-1.145c.126-.211.204-.448.229-.693 0-.544-.365-.73-1.423-.73h-1.194v-1.484h7.745v1.484c-2.53.05-2.803.186-3.996 2.568l-6.458 12.272v12.725h4.806v1.484h-16.869v-1.484h4.677v-12.372l-8.71-15.205h-2.153v-1.485z" fill="#000"/><path d="m124.652 9.99495 3.365.04945 1.219-3.1362.99 3.2167 3.365.1855-2.759 1.9424.866 3.2538-2.697-2.0166-2.827 1.8186 1.083-3.1857z" fill="#000"/><path d="m217.787 51.5859 2.053 2.6661 3.223-1.0021-1.905 2.7775 1.949 2.7465-3.23-.9464-2.01 2.7032-.099-3.3651-3.192-1.0825 3.174-1.132z" fill="#000"/><path d="m245.388 155.273-3.353.353-.835 3.26-1.367-3.075-3.359.217 2.499-2.258-1.237-3.124 2.914 1.682 2.591-2.152-.699 3.297z" fill="#000"/><path d="m175.159 230.349 3.365.204 1.361-3.08.841 3.26 3.353.34-2.84 1.812.706 3.291-2.598-2.14-2.908 1.695 1.231-3.136z" fill="#000"/><path d="m73.5688 232.548 3.3528-.316.8722-3.253 1.3361 3.092 3.359-.179-2.5239 2.227 1.2124 3.142-2.9011-1.713-2.6104 2.122.7299-3.285z" fill="#000"/><path d="m9.61963 154.487 3.00637-1.515-.3774-3.347 2.3692 2.388 3.0682-1.392-1.5465 2.994 2.2764 2.487-3.328-.539-1.6578 2.926-.5134-3.328z" fill="#000"/><path d="m33.4648 52.3128 3.2167.9959 2.0537-2.6661.0433 3.3651 3.1734 1.1258-3.1858 1.0825-.0928 3.3713-2.0165-2.697-3.2291.9526 1.9424-2.7527z" fill="#000"/><path clip-rule="evenodd" d="m168.692 236.406c.626 1.645-.199 3.486-1.845 4.113-10.277 3.913-24.735 5.918-38.638 6.125-13.864.206-27.734-1.366-36.7611-4.982-1.6342-.655-2.4283-2.51-1.7737-4.144.6547-1.635 2.5101-2.429 4.1443-1.774 7.8655 3.151 20.7405 4.727 34.2955 4.526 13.517-.202 27.152-2.163 36.465-5.709 1.645-.626 3.486.199 4.113 1.845z" fill="#070606" fill-rule="evenodd"/><path clip-rule="evenodd" d="m18.1189 165.16c1.6953-.475 3.4542.515 3.9286 2.21 2.2839 8.163 8.8671 19.34 17.2761 29.974 8.385 10.604 18.2391 20.232 26.7203 25.466 1.498.925 1.9629 2.889 1.0383 4.387s-2.8885 1.963-4.3866 1.038c-9.3588-5.776-19.748-16.03-28.3726-26.937-8.6006-10.877-15.7933-22.841-18.4147-32.21-.4744-1.695.5153-3.454 2.2106-3.928z" fill="#070606" fill-rule="evenodd"/><path clip-rule="evenodd" d="m30.9315 64.1888c1.4178 1.0433 1.7214 3.0386.6781 4.4565-5.0229 6.8258-9.7748 18.9004-12.9752 32.0767-3.1913 13.139-4.7082 26.829-3.6085 36.72.1945 1.75-1.0661 3.326-2.8158 3.52-1.7496.195-3.32562-1.066-3.52014-2.815-1.21383-10.918.46737-25.417 3.74954-38.9298 3.2732-13.4757 8.2702-26.5157 14.0354-34.3503 1.0434-1.4179 3.0387-1.7215 4.4566-.6781z" fill="#070606" fill-rule="evenodd"/><path clip-rule="evenodd" d="m117.385 12.968c.155 1.7536-1.141 3.3006-2.895 3.4554-9.928.8764-23.0521 5.0636-35.3007 10.7819-12.2836 5.7347-23.1779 12.7723-28.8775 19.0421-1.1842 1.3027-3.2001 1.3987-4.5027.2146-1.3027-1.1842-1.3987-3.2001-.2146-4.5027 6.5422-7.1968 18.3346-14.6651 30.898-20.5305 12.5986-5.8817 26.4815-10.3887 37.4375-11.3557 1.753-.1548 3.3 1.1413 3.455 2.8949z" fill="#070606" fill-rule="evenodd"/><path clip-rule="evenodd" d="m139.693 13.1449c.102-1.7574 1.61-3.0992 3.367-2.9968 9.709.5652 22.931 5.0426 35.393 11.1276 12.496 6.102 24.733 14.0675 32.378 21.9817 1.223 1.2661 1.188 3.284-.078 4.5071-1.267 1.2231-3.284 1.1881-4.508-.078-6.929-7.1732-18.44-14.7497-30.589-20.6823-12.185-5.9496-24.507-9.9994-32.966-10.4919-1.758-.1023-3.099-1.61-2.997-3.3674z" fill="#070606" fill-rule="evenodd"/><path clip-rule="evenodd" d="m225.042 65.437c1.434-1.0211 3.425-.6865 4.446.7475 5.647 7.9312 10.452 21.0342 13.526 34.5515 3.084 13.553 4.552 28.068 3.179 38.981-.22 1.747-1.814 2.985-3.561 2.765-1.746-.22-2.984-1.814-2.764-3.56 1.244-9.89-.072-23.595-3.07-36.772-3.006-13.2142-7.579-25.3527-12.503-32.2676-1.021-1.434-.687-3.4243.747-4.4454z" fill="#070606" fill-rule="evenodd"/><path clip-rule="evenodd" d="m237.002 164.455c1.699.46 2.704 2.21 2.244 3.909-2.538 9.388-9.622 21.415-18.123 32.368-8.525 10.983-18.82 21.329-28.128 27.187-1.49.938-3.458.49-4.395-1-.938-1.49-.49-3.458.999-4.395 8.434-5.308 18.2-15.023 26.488-25.701 8.312-10.708 14.793-21.943 17.006-30.123.459-1.699 2.209-2.704 3.909-2.245z" fill="#070606" fill-rule="evenodd"/></g></svg>